<mxfile host="app.diagrams.net" modified="2024-05-16T05:49:41.166Z" agent="Mozilla/5.0 (Windows NT 10.0; Win64; x64) AppleWebKit/537.36 (KHTML, like Gecko) Chrome/124.0.0.0 Safari/537.36" etag="TnjUO3dbCeDwYOC1iWF5" version="24.4.2" type="github" pages="2">
  <diagram name="Page-1" id="b98fa263-6416-c6ec-5b7d-78bf54ef71d0">
    <mxGraphModel dx="1472" dy="765" grid="1" gridSize="10" guides="1" tooltips="1" connect="1" arrows="1" fold="1" page="1" pageScale="1.5" pageWidth="1169" pageHeight="826" background="none" math="0" shadow="0">
      <root>
        <mxCell id="0" style=";html=1;" />
        <mxCell id="1" style=";html=1;" parent="0" />
        <mxCell id="1aNGRb9Zcy0efrWyivjs-21" style="edgeStyle=orthogonalEdgeStyle;rounded=0;orthogonalLoop=1;jettySize=auto;html=1;endArrow=none;endFill=0;" edge="1" parent="1" source="303ed1de8c2c98b4-4" target="1aNGRb9Zcy0efrWyivjs-1">
          <mxGeometry relative="1" as="geometry">
            <Array as="points">
              <mxPoint x="1019.75" y="320" />
              <mxPoint x="630.75" y="320" />
            </Array>
          </mxGeometry>
        </mxCell>
        <mxCell id="303ed1de8c2c98b4-4" value="Mobile-Based Hybrid Blood Bank System" style="whiteSpace=wrap;html=1;rounded=1;shadow=1;strokeWidth=1;fontSize=16;align=center;fillColor=#f5f5f5;strokeColor=#666666;" parent="1" vertex="1">
          <mxGeometry x="759.75" y="210" width="510" height="60" as="geometry" />
        </mxCell>
        <mxCell id="1aNGRb9Zcy0efrWyivjs-19" style="edgeStyle=orthogonalEdgeStyle;rounded=0;orthogonalLoop=1;jettySize=auto;html=1;entryX=0.5;entryY=1;entryDx=0;entryDy=0;endArrow=none;endFill=0;" edge="1" parent="1" source="303ed1de8c2c98b4-5" target="1aNGRb9Zcy0efrWyivjs-1">
          <mxGeometry relative="1" as="geometry">
            <Array as="points">
              <mxPoint x="495.75" y="430" />
              <mxPoint x="630.75" y="430" />
            </Array>
          </mxGeometry>
        </mxCell>
        <mxCell id="303ed1de8c2c98b4-5" value="Appointment Scheduling" style="whiteSpace=wrap;html=1;rounded=1;shadow=1;strokeWidth=1;fontSize=16;align=center;fillColor=#f5f5f5;strokeColor=#666666;" parent="1" vertex="1">
          <mxGeometry x="390.5" y="480" width="210" height="70" as="geometry" />
        </mxCell>
        <mxCell id="1aNGRb9Zcy0efrWyivjs-17" style="edgeStyle=orthogonalEdgeStyle;rounded=0;orthogonalLoop=1;jettySize=auto;html=1;entryX=0.5;entryY=1;entryDx=0;entryDy=0;endArrow=none;endFill=0;" edge="1" parent="1" source="303ed1de8c2c98b4-6" target="1aNGRb9Zcy0efrWyivjs-1">
          <mxGeometry relative="1" as="geometry">
            <Array as="points">
              <mxPoint x="745.75" y="430" />
              <mxPoint x="630.75" y="430" />
            </Array>
          </mxGeometry>
        </mxCell>
        <mxCell id="303ed1de8c2c98b4-6" value="Blood Donation Management" style="whiteSpace=wrap;html=1;rounded=1;shadow=1;strokeWidth=1;fontSize=16;align=center;fillColor=#f5f5f5;strokeColor=#666666;" parent="1" vertex="1">
          <mxGeometry x="640.5" y="480" width="210" height="70" as="geometry" />
        </mxCell>
        <mxCell id="1aNGRb9Zcy0efrWyivjs-20" style="edgeStyle=orthogonalEdgeStyle;rounded=0;orthogonalLoop=1;jettySize=auto;html=1;entryX=0.5;entryY=1;entryDx=0;entryDy=0;endArrow=none;endFill=0;" edge="1" parent="1" source="303ed1de8c2c98b4-7" target="1aNGRb9Zcy0efrWyivjs-1">
          <mxGeometry relative="1" as="geometry">
            <mxPoint x="269.75" y="450" as="targetPoint" />
            <Array as="points">
              <mxPoint x="248.75" y="430" />
              <mxPoint x="629.75" y="430" />
            </Array>
          </mxGeometry>
        </mxCell>
        <mxCell id="303ed1de8c2c98b4-7" value="User Management" style="whiteSpace=wrap;html=1;rounded=1;shadow=1;strokeWidth=1;fontSize=16;align=center;fillColor=#f5f5f5;strokeColor=#666666;" parent="1" vertex="1">
          <mxGeometry x="144" y="480" width="210" height="70" as="geometry" />
        </mxCell>
        <mxCell id="1aNGRb9Zcy0efrWyivjs-15" style="edgeStyle=orthogonalEdgeStyle;rounded=0;orthogonalLoop=1;jettySize=auto;html=1;entryX=0.5;entryY=1;entryDx=0;entryDy=0;endArrow=none;endFill=0;" edge="1" parent="1" source="303ed1de8c2c98b4-8" target="1aNGRb9Zcy0efrWyivjs-1">
          <mxGeometry relative="1" as="geometry">
            <Array as="points">
              <mxPoint x="995.75" y="430" />
              <mxPoint x="630.75" y="430" />
            </Array>
          </mxGeometry>
        </mxCell>
        <mxCell id="303ed1de8c2c98b4-8" value="Communication &amp;amp; Coordination&amp;nbsp;" style="whiteSpace=wrap;html=1;rounded=1;shadow=1;strokeWidth=1;fontSize=16;align=center;fillColor=#f5f5f5;strokeColor=#666666;" parent="1" vertex="1">
          <mxGeometry x="890.5" y="480" width="210" height="70" as="geometry" />
        </mxCell>
        <mxCell id="1aNGRb9Zcy0efrWyivjs-23" style="edgeStyle=orthogonalEdgeStyle;rounded=0;orthogonalLoop=1;jettySize=auto;html=1;entryX=0.5;entryY=1;entryDx=0;entryDy=0;endArrow=none;endFill=0;exitX=0.5;exitY=0;exitDx=0;exitDy=0;" edge="1" parent="1" source="303ed1de8c2c98b4-9" target="303ed1de8c2c98b4-4">
          <mxGeometry relative="1" as="geometry">
            <Array as="points">
              <mxPoint x="1387.75" y="320" />
              <mxPoint x="1019.75" y="320" />
              <mxPoint x="1019.75" y="270" />
            </Array>
          </mxGeometry>
        </mxCell>
        <mxCell id="1aNGRb9Zcy0efrWyivjs-56" style="edgeStyle=orthogonalEdgeStyle;rounded=0;orthogonalLoop=1;jettySize=auto;html=1;entryX=0.5;entryY=0;entryDx=0;entryDy=0;endArrow=none;endFill=0;" edge="1" parent="1" source="303ed1de8c2c98b4-9" target="1aNGRb9Zcy0efrWyivjs-30">
          <mxGeometry relative="1" as="geometry" />
        </mxCell>
        <mxCell id="1aNGRb9Zcy0efrWyivjs-57" style="edgeStyle=orthogonalEdgeStyle;rounded=0;orthogonalLoop=1;jettySize=auto;html=1;entryX=0.5;entryY=0;entryDx=0;entryDy=0;endArrow=none;endFill=0;" edge="1" parent="1" source="303ed1de8c2c98b4-9" target="1aNGRb9Zcy0efrWyivjs-25">
          <mxGeometry relative="1" as="geometry" />
        </mxCell>
        <mxCell id="303ed1de8c2c98b4-9" value="Staff" style="whiteSpace=wrap;html=1;rounded=1;shadow=1;strokeWidth=1;fontSize=16;align=center;fillColor=#f5f5f5;strokeColor=#666666;" parent="1" vertex="1">
          <mxGeometry x="1249.75" y="345" width="275" height="40" as="geometry" />
        </mxCell>
        <mxCell id="303ed1de8c2c98b4-15" value="&amp;nbsp;User Registration&amp;nbsp;" style="whiteSpace=wrap;html=1;rounded=1;shadow=1;strokeWidth=1;fontSize=16;align=center;fillColor=#f5f5f5;strokeColor=#666666;" parent="1" vertex="1">
          <mxGeometry x="159" y="570" width="180" height="70" as="geometry" />
        </mxCell>
        <mxCell id="izY5SlkCkCMAxcJ_Fvx5-6" value="User Login/Authenticate&amp;nbsp;&amp;nbsp;" style="whiteSpace=wrap;html=1;rounded=1;shadow=1;strokeWidth=1;fontSize=16;align=center;fillColor=#f5f5f5;strokeColor=#666666;" vertex="1" parent="1">
          <mxGeometry x="159" y="660" width="180" height="70" as="geometry" />
        </mxCell>
        <mxCell id="izY5SlkCkCMAxcJ_Fvx5-7" value="User Profile Management" style="whiteSpace=wrap;html=1;rounded=1;shadow=1;strokeWidth=1;fontSize=16;align=center;fillColor=#f5f5f5;strokeColor=#666666;" vertex="1" parent="1">
          <mxGeometry x="159" y="750" width="180" height="70" as="geometry" />
        </mxCell>
        <mxCell id="izY5SlkCkCMAxcJ_Fvx5-11" value="" style="endArrow=none;html=1;rounded=0;entryX=0.5;entryY=1;entryDx=0;entryDy=0;" edge="1" parent="1" source="izY5SlkCkCMAxcJ_Fvx5-7" target="izY5SlkCkCMAxcJ_Fvx5-6">
          <mxGeometry width="50" height="50" relative="1" as="geometry">
            <mxPoint x="295" y="805" as="sourcePoint" />
            <mxPoint x="280.4999999999998" y="800" as="targetPoint" />
          </mxGeometry>
        </mxCell>
        <mxCell id="izY5SlkCkCMAxcJ_Fvx5-14" value="" style="endArrow=none;html=1;rounded=0;entryX=0.5;entryY=1;entryDx=0;entryDy=0;exitX=0.5;exitY=0;exitDx=0;exitDy=0;" edge="1" parent="1" source="izY5SlkCkCMAxcJ_Fvx5-6" target="303ed1de8c2c98b4-15">
          <mxGeometry width="50" height="50" relative="1" as="geometry">
            <mxPoint x="280.4999999999998" y="755" as="sourcePoint" />
            <mxPoint x="301" y="715" as="targetPoint" />
          </mxGeometry>
        </mxCell>
        <mxCell id="izY5SlkCkCMAxcJ_Fvx5-16" value="" style="endArrow=none;html=1;rounded=0;entryX=0.5;entryY=1;entryDx=0;entryDy=0;exitX=0.5;exitY=0;exitDx=0;exitDy=0;" edge="1" parent="1" source="303ed1de8c2c98b4-15" target="303ed1de8c2c98b4-7">
          <mxGeometry width="50" height="50" relative="1" as="geometry">
            <mxPoint x="332.5" y="643" as="sourcePoint" />
            <mxPoint x="332.5" y="610" as="targetPoint" />
          </mxGeometry>
        </mxCell>
        <mxCell id="izY5SlkCkCMAxcJ_Fvx5-25" value="Real-time Availability Checks" style="whiteSpace=wrap;html=1;rounded=1;shadow=1;strokeWidth=1;fontSize=16;align=center;fillColor=#f5f5f5;strokeColor=#666666;" vertex="1" parent="1">
          <mxGeometry x="405.5" y="570" width="180" height="70" as="geometry" />
        </mxCell>
        <mxCell id="izY5SlkCkCMAxcJ_Fvx5-26" value="Automated Reminders" style="whiteSpace=wrap;html=1;rounded=1;shadow=1;strokeWidth=1;fontSize=16;align=center;fillColor=#f5f5f5;strokeColor=#666666;" vertex="1" parent="1">
          <mxGeometry x="405.5" y="660" width="180" height="70" as="geometry" />
        </mxCell>
        <mxCell id="izY5SlkCkCMAxcJ_Fvx5-27" value="Appointment Booking" style="whiteSpace=wrap;html=1;rounded=1;shadow=1;strokeWidth=1;fontSize=16;align=center;fillColor=#f5f5f5;strokeColor=#666666;" vertex="1" parent="1">
          <mxGeometry x="405.5" y="750" width="180" height="70" as="geometry" />
        </mxCell>
        <mxCell id="izY5SlkCkCMAxcJ_Fvx5-28" value="" style="endArrow=none;html=1;rounded=0;entryX=0.5;entryY=1;entryDx=0;entryDy=0;" edge="1" parent="1" source="izY5SlkCkCMAxcJ_Fvx5-27" target="izY5SlkCkCMAxcJ_Fvx5-26">
          <mxGeometry width="50" height="50" relative="1" as="geometry">
            <mxPoint x="652.5" y="765" as="sourcePoint" />
            <mxPoint x="702.5" y="715" as="targetPoint" />
          </mxGeometry>
        </mxCell>
        <mxCell id="izY5SlkCkCMAxcJ_Fvx5-29" value="" style="endArrow=none;html=1;rounded=0;entryX=0.5;entryY=1;entryDx=0;entryDy=0;exitX=0.5;exitY=0;exitDx=0;exitDy=0;" edge="1" parent="1" source="izY5SlkCkCMAxcJ_Fvx5-26" target="izY5SlkCkCMAxcJ_Fvx5-25">
          <mxGeometry width="50" height="50" relative="1" as="geometry">
            <mxPoint x="658.5" y="708" as="sourcePoint" />
            <mxPoint x="658.5" y="675" as="targetPoint" />
          </mxGeometry>
        </mxCell>
        <mxCell id="izY5SlkCkCMAxcJ_Fvx5-30" value="" style="endArrow=none;html=1;rounded=0;entryX=0.5;entryY=1;entryDx=0;entryDy=0;exitX=0.5;exitY=0;exitDx=0;exitDy=0;" edge="1" parent="1" source="izY5SlkCkCMAxcJ_Fvx5-25" target="303ed1de8c2c98b4-5">
          <mxGeometry width="50" height="50" relative="1" as="geometry">
            <mxPoint x="620.5" y="670" as="sourcePoint" />
            <mxPoint x="718" y="555" as="targetPoint" />
          </mxGeometry>
        </mxCell>
        <mxCell id="izY5SlkCkCMAxcJ_Fvx5-34" value="Donor Registration" style="whiteSpace=wrap;html=1;rounded=1;shadow=1;strokeWidth=1;fontSize=16;align=center;fillColor=#f5f5f5;strokeColor=#666666;" vertex="1" parent="1">
          <mxGeometry x="655.5" y="570" width="180" height="70" as="geometry" />
        </mxCell>
        <mxCell id="izY5SlkCkCMAxcJ_Fvx5-35" value="&amp;nbsp;Donation Scheduling" style="whiteSpace=wrap;html=1;rounded=1;shadow=1;strokeWidth=1;fontSize=16;align=center;fillColor=#f5f5f5;strokeColor=#666666;" vertex="1" parent="1">
          <mxGeometry x="655.5" y="660" width="180" height="70" as="geometry" />
        </mxCell>
        <mxCell id="izY5SlkCkCMAxcJ_Fvx5-36" value="Donation Campaign Notifications" style="whiteSpace=wrap;html=1;rounded=1;shadow=1;strokeWidth=1;fontSize=16;align=center;fillColor=#f5f5f5;strokeColor=#666666;" vertex="1" parent="1">
          <mxGeometry x="655.5" y="750" width="180" height="70" as="geometry" />
        </mxCell>
        <mxCell id="izY5SlkCkCMAxcJ_Fvx5-37" value="" style="endArrow=none;html=1;rounded=0;entryX=0.5;entryY=1;entryDx=0;entryDy=0;" edge="1" parent="1" source="izY5SlkCkCMAxcJ_Fvx5-36" target="izY5SlkCkCMAxcJ_Fvx5-35">
          <mxGeometry width="50" height="50" relative="1" as="geometry">
            <mxPoint x="968" y="765" as="sourcePoint" />
            <mxPoint x="1018" y="715" as="targetPoint" />
          </mxGeometry>
        </mxCell>
        <mxCell id="izY5SlkCkCMAxcJ_Fvx5-38" value="" style="endArrow=none;html=1;rounded=0;entryX=0.5;entryY=1;entryDx=0;entryDy=0;exitX=0.5;exitY=0;exitDx=0;exitDy=0;" edge="1" parent="1" source="izY5SlkCkCMAxcJ_Fvx5-35" target="izY5SlkCkCMAxcJ_Fvx5-34">
          <mxGeometry width="50" height="50" relative="1" as="geometry">
            <mxPoint x="974" y="708" as="sourcePoint" />
            <mxPoint x="974" y="675" as="targetPoint" />
          </mxGeometry>
        </mxCell>
        <mxCell id="izY5SlkCkCMAxcJ_Fvx5-42" value="" style="endArrow=none;html=1;rounded=0;entryX=0.5;entryY=0;entryDx=0;entryDy=0;exitX=0.503;exitY=1.006;exitDx=0;exitDy=0;exitPerimeter=0;" edge="1" parent="1" source="303ed1de8c2c98b4-6" target="izY5SlkCkCMAxcJ_Fvx5-34">
          <mxGeometry width="50" height="50" relative="1" as="geometry">
            <mxPoint x="910.5" y="675" as="sourcePoint" />
            <mxPoint x="960.5" y="625" as="targetPoint" />
          </mxGeometry>
        </mxCell>
        <mxCell id="izY5SlkCkCMAxcJ_Fvx5-46" value="Chat Functionality between Donors/Recipients" style="whiteSpace=wrap;html=1;rounded=1;shadow=1;strokeWidth=1;fontSize=16;align=center;fillColor=#f5f5f5;strokeColor=#666666;" vertex="1" parent="1">
          <mxGeometry x="905.5" y="570" width="180" height="70" as="geometry" />
        </mxCell>
        <mxCell id="izY5SlkCkCMAxcJ_Fvx5-47" value="Notification of Urgent Supply Needs" style="whiteSpace=wrap;html=1;rounded=1;shadow=1;strokeWidth=1;fontSize=16;align=center;fillColor=#f5f5f5;strokeColor=#666666;" vertex="1" parent="1">
          <mxGeometry x="905.5" y="660" width="180" height="70" as="geometry" />
        </mxCell>
        <mxCell id="izY5SlkCkCMAxcJ_Fvx5-50" value="" style="endArrow=none;html=1;rounded=0;entryX=0.5;entryY=1;entryDx=0;entryDy=0;exitX=0.5;exitY=0;exitDx=0;exitDy=0;" edge="1" parent="1" source="izY5SlkCkCMAxcJ_Fvx5-47" target="izY5SlkCkCMAxcJ_Fvx5-46">
          <mxGeometry width="50" height="50" relative="1" as="geometry">
            <mxPoint x="1275.5" y="708" as="sourcePoint" />
            <mxPoint x="1275.5" y="675" as="targetPoint" />
          </mxGeometry>
        </mxCell>
        <mxCell id="izY5SlkCkCMAxcJ_Fvx5-51" value="" style="endArrow=none;html=1;rounded=0;entryX=0.5;entryY=0;entryDx=0;entryDy=0;exitX=0.5;exitY=1;exitDx=0;exitDy=0;" edge="1" parent="1" target="izY5SlkCkCMAxcJ_Fvx5-46" source="303ed1de8c2c98b4-8">
          <mxGeometry width="50" height="50" relative="1" as="geometry">
            <mxPoint x="1255" y="610" as="sourcePoint" />
            <mxPoint x="1262" y="625" as="targetPoint" />
          </mxGeometry>
        </mxCell>
        <mxCell id="1aNGRb9Zcy0efrWyivjs-1" value="User" style="whiteSpace=wrap;html=1;rounded=1;shadow=1;strokeWidth=1;fontSize=16;align=center;fillColor=#f5f5f5;strokeColor=#666666;" vertex="1" parent="1">
          <mxGeometry x="489.75" y="345" width="281" height="40" as="geometry" />
        </mxCell>
        <mxCell id="1aNGRb9Zcy0efrWyivjs-47" style="edgeStyle=orthogonalEdgeStyle;rounded=0;orthogonalLoop=1;jettySize=auto;html=1;exitX=0.5;exitY=1;exitDx=0;exitDy=0;entryX=0.5;entryY=0;entryDx=0;entryDy=0;endArrow=none;endFill=0;" edge="1" parent="1" source="1aNGRb9Zcy0efrWyivjs-25" target="1aNGRb9Zcy0efrWyivjs-28">
          <mxGeometry relative="1" as="geometry" />
        </mxCell>
        <mxCell id="1aNGRb9Zcy0efrWyivjs-25" value="Inventory Management" style="whiteSpace=wrap;html=1;rounded=1;shadow=1;strokeWidth=1;fontSize=16;align=center;fillColor=#f5f5f5;strokeColor=#666666;" vertex="1" parent="1">
          <mxGeometry x="1399.75" y="480" width="210" height="70" as="geometry" />
        </mxCell>
        <mxCell id="1aNGRb9Zcy0efrWyivjs-36" style="edgeStyle=orthogonalEdgeStyle;rounded=0;orthogonalLoop=1;jettySize=auto;html=1;entryX=0.5;entryY=0;entryDx=0;entryDy=0;endArrow=none;endFill=0;" edge="1" parent="1" source="1aNGRb9Zcy0efrWyivjs-26" target="1aNGRb9Zcy0efrWyivjs-31">
          <mxGeometry relative="1" as="geometry" />
        </mxCell>
        <mxCell id="1aNGRb9Zcy0efrWyivjs-26" value="Create post" style="whiteSpace=wrap;html=1;rounded=1;shadow=1;strokeWidth=1;fontSize=16;align=center;fillColor=#f5f5f5;strokeColor=#666666;" vertex="1" parent="1">
          <mxGeometry x="1164.75" y="570" width="180" height="70" as="geometry" />
        </mxCell>
        <mxCell id="1aNGRb9Zcy0efrWyivjs-28" value="Real-time Inventory Updates" style="whiteSpace=wrap;html=1;rounded=1;shadow=1;strokeWidth=1;fontSize=16;align=center;fillColor=#f5f5f5;strokeColor=#666666;" vertex="1" parent="1">
          <mxGeometry x="1414.75" y="570" width="180" height="70" as="geometry" />
        </mxCell>
        <mxCell id="1aNGRb9Zcy0efrWyivjs-35" style="edgeStyle=orthogonalEdgeStyle;rounded=0;orthogonalLoop=1;jettySize=auto;html=1;exitX=0.5;exitY=1;exitDx=0;exitDy=0;entryX=0.5;entryY=0;entryDx=0;entryDy=0;endArrow=none;endFill=0;" edge="1" parent="1" source="1aNGRb9Zcy0efrWyivjs-30" target="1aNGRb9Zcy0efrWyivjs-26">
          <mxGeometry relative="1" as="geometry" />
        </mxCell>
        <mxCell id="1aNGRb9Zcy0efrWyivjs-30" value="Application Management" style="whiteSpace=wrap;html=1;rounded=1;shadow=1;strokeWidth=1;fontSize=16;align=center;fillColor=#f5f5f5;strokeColor=#666666;" vertex="1" parent="1">
          <mxGeometry x="1149.75" y="480" width="210" height="70" as="geometry" />
        </mxCell>
        <mxCell id="1aNGRb9Zcy0efrWyivjs-41" style="edgeStyle=orthogonalEdgeStyle;rounded=0;orthogonalLoop=1;jettySize=auto;html=1;entryX=0.5;entryY=0;entryDx=0;entryDy=0;endArrow=none;endFill=0;" edge="1" parent="1" source="1aNGRb9Zcy0efrWyivjs-31" target="1aNGRb9Zcy0efrWyivjs-32">
          <mxGeometry relative="1" as="geometry" />
        </mxCell>
        <mxCell id="1aNGRb9Zcy0efrWyivjs-31" value="Update Post" style="whiteSpace=wrap;html=1;rounded=1;shadow=1;strokeWidth=1;fontSize=16;align=center;fillColor=#f5f5f5;strokeColor=#666666;" vertex="1" parent="1">
          <mxGeometry x="1164.75" y="660" width="180" height="70" as="geometry" />
        </mxCell>
        <mxCell id="1aNGRb9Zcy0efrWyivjs-44" style="edgeStyle=orthogonalEdgeStyle;rounded=0;orthogonalLoop=1;jettySize=auto;html=1;entryX=0.5;entryY=0;entryDx=0;entryDy=0;endArrow=none;endFill=0;" edge="1" parent="1" source="1aNGRb9Zcy0efrWyivjs-32" target="1aNGRb9Zcy0efrWyivjs-33">
          <mxGeometry relative="1" as="geometry" />
        </mxCell>
        <mxCell id="1aNGRb9Zcy0efrWyivjs-32" value="Delete Post" style="whiteSpace=wrap;html=1;rounded=1;shadow=1;strokeWidth=1;fontSize=16;align=center;fillColor=#f5f5f5;strokeColor=#666666;" vertex="1" parent="1">
          <mxGeometry x="1164.75" y="750" width="180" height="70" as="geometry" />
        </mxCell>
        <mxCell id="1aNGRb9Zcy0efrWyivjs-33" value="View Post" style="whiteSpace=wrap;html=1;rounded=1;shadow=1;strokeWidth=1;fontSize=16;align=center;fillColor=#f5f5f5;strokeColor=#666666;" vertex="1" parent="1">
          <mxGeometry x="1164.75" y="840" width="180" height="70" as="geometry" />
        </mxCell>
      </root>
    </mxGraphModel>
  </diagram>
  <diagram id="THAyg3B62XdpRPFAK3Jd" name="Page-2">
    <mxGraphModel grid="1" page="1" gridSize="10" guides="1" tooltips="1" connect="1" arrows="1" fold="1" pageScale="1" pageWidth="1169" pageHeight="827" math="0" shadow="0">
      <root>
        <mxCell id="0" />
        <mxCell id="1" parent="0" />
      </root>
    </mxGraphModel>
  </diagram>
</mxfile>
